<svg xmlns="http://www.w3.org/2000/svg" viewBox="0 0 595.28 595.28"><defs><style>.cls-1{fill:#228be6;}</style></defs><g id="Capa_2" data-name="Capa 2"><g id="Capa_1-2" data-name="Capa 1"><path class="cls-1" d="M108.23,0A108.35,108.35,0,0,0,0,108.23V487A108.36,108.36,0,0,0,108.23,595.28H487A108.37,108.37,0,0,0,595.28,487V108.23A108.36,108.36,0,0,0,487,0Zm0,18H487a90.3,90.3,0,0,1,90.2,90.19V487a90.3,90.3,0,0,1-90.2,90.2H108.23A90.3,90.3,0,0,1,18,487V108.23A90.29,90.29,0,0,1,108.23,18Zm49.61,36.08A103.84,103.84,0,0,0,54.12,157.84v279.6A103.84,103.84,0,0,0,157.84,541.16h279.6A103.84,103.84,0,0,0,541.16,437.44V302.15a4.51,4.51,0,0,0-9,0V437.44a94.8,94.8,0,0,1-94.7,94.7H383.11V456.87a65.57,65.57,0,0,0-24.75-51h6.25c64.7,0,117.33-52.44,117.33-116.9a116.77,116.77,0,0,0-30.53-78.76c3-18.62,3-46.57-5.41-71.84a4.52,4.52,0,0,0-4.28-3.08c-36.54,0-67.39,24.25-80.26,36.08H249.55c-31.57-29.8-60-36.08-78.39-36.08a4.52,4.52,0,0,0-4.28,3.08c-6.93,20.76-10,45.59-8.09,65.46A117.41,117.41,0,0,0,122,289c0,64.45,52.62,116.88,117.31,116.88h6c-11.91,9.31-20.44,22.11-23.71,36-18-.29-38.66-3-48.3-17.42-21.87-32.83-32.91-35.28-47.23-35.28-6,0-10.48,2.61-12.36,7.16-2.66,6.39.44,14.89,8.27,22.73,10.58,10.58,10.59,10.57,21.36,32.1,6.51,13,25.17,34.61,77.45,35.79v45.15H157.84a94.8,94.8,0,0,1-94.7-94.7V157.84a94.8,94.8,0,0,1,94.7-94.7h279.6a4.51,4.51,0,0,0,0-9Zm16.57,90.26c16.85.76,41.67,7.6,69.43,34l.83.79a4.47,4.47,0,0,0,3.08,1.22H363.24a4.85,4.85,0,0,0,3.19-1.31c10.75-10.13,38.82-33.24,72-34.7,7.21,23.86,6.68,49.76,3.68,66.48a4.53,4.53,0,0,0,1.16,3.9A107.77,107.77,0,0,1,472.92,289c0,59.48-48.59,107.88-108.31,107.88H342.52a4.51,4.51,0,0,0-1.88,8.6,57,57,0,0,1,33.45,51.42v75.27H229.78V482.53a4.51,4.51,0,0,0-4.51-4.51c-37.71,0-64-11-73.9-30.86-11.21-22.41-11.43-22.83-23-34.44-6.05-6.06-7.1-11-6.32-12.89.57-1.4,2.77-1.61,4-1.61,10.13,0,18.88,0,39.73,31.27,12.69,19,38.46,21.48,59.5,21.48a4.5,4.5,0,0,0,4.44-3.79c2.87-17.58,15.7-33.56,33.51-41.72a4.51,4.51,0,0,0-1.87-8.61H239.28C179.57,396.85,131,348.45,131,289a108.41,108.41,0,0,1,35.57-80.05,4.52,4.52,0,0,0,1.46-3.85C165.94,187.33,168.44,163.88,174.41,144.38Zm362.24,9a4.51,4.51,0,0,0-4.51,4.51v31.57a4.51,4.51,0,0,0,9,0V157.84A4.51,4.51,0,0,0,536.65,153.33Zm0,63.13a4.51,4.51,0,0,0-4.51,4.51V279.6a4.51,4.51,0,0,0,9,0V221A4.51,4.51,0,0,0,536.65,216.46Z"/></g></g></svg>