<?xml version="1.0" encoding="utf-8"?>
<!-- Generator: Adobe Illustrator 25.2.3, SVG Export Plug-In . SVG Version: 6.00 Build 0)  -->
<svg version="1.1" id="Capa_1" xmlns="http://www.w3.org/2000/svg" xmlns:xlink="http://www.w3.org/1999/xlink" x="0px" y="0px"
	 viewBox="0 0 50 50" style="enable-background:new 0 0 50 50;" xml:space="preserve">
<style type="text/css">
	.st0{fill:#228BE6;}
</style>
<path class="st0" d="M14.8,0C6.6,0,0,6.6,0,14.8v20.5C0,43.4,6.6,50,14.8,50h20.5C43.4,50,50,43.4,50,35.2V14.8
	C50,6.6,43.4,0,35.2,0H14.8z M14.8,2.3h20.5c6.9,0,12.5,5.6,12.5,12.5v20.5c0,6.9-5.6,12.5-12.5,12.5H14.8
	c-6.9,0-12.5-5.6-12.5-12.5V14.8C2.3,7.9,7.9,2.3,14.8,2.3z M38.6,9.1c-1.3,0-2.3,1-2.3,2.3s1,2.3,2.3,2.3s2.3-1,2.3-2.3
	S39.9,9.1,38.6,9.1z M25,12.5c-6.9,0-12.5,5.6-12.5,12.5S18.1,37.5,25,37.5S37.5,31.9,37.5,25S31.9,12.5,25,12.5z M25,14.8
	c5.7,0,10.2,4.6,10.2,10.2S30.7,35.2,25,35.2S14.8,30.7,14.8,25S19.3,14.8,25,14.8z"/>
</svg>
