<?xml version="1.0" encoding="utf-8"?>
<!-- Generator: Adobe Illustrator 25.2.3, SVG Export Plug-In . SVG Version: 6.00 Build 0)  -->
<svg version="1.1" id="Capa_1" xmlns="http://www.w3.org/2000/svg" xmlns:xlink="http://www.w3.org/1999/xlink" x="0px" y="0px"
	 viewBox="0 0 50 50" style="enable-background:new 0 0 50 50;" xml:space="preserve">
<style type="text/css">
	.st0{fill:#228BE6;}
</style>
<path class="st0" d="M25,0C11.2,0,0,11.2,0,25s11.2,25,25,25s25-11.2,25-25S38.8,0,25,0z M25,2.2c12.6,0,22.8,10.2,22.8,22.8
	S37.6,47.8,25,47.8S2.2,37.6,2.2,25S12.4,2.2,25,2.2z M15.2,10.9c-1.8,0-3.3,1.5-3.3,3.3s1.5,3.3,3.3,3.3s3.3-1.5,3.3-3.3
	S17,10.9,15.2,10.9z M15.2,13c0.6,0,1.1,0.5,1.1,1.1c0,0.6-0.5,1.1-1.1,1.1c-0.6,0-1.1-0.5-1.1-1.1C14.1,13.5,14.6,13,15.2,13z
	 M13,18.5c-0.6,0-1.1,0.5-1.1,1.1v16.3c0,0.6,0.5,1.1,1.1,1.1h4.3c0.6,0,1.1-0.5,1.1-1.1V19.6c0-0.6-0.5-1.1-1.1-1.1H13z M21.7,18.5
	c-0.6,0-1.1,0.5-1.1,1.1v16.3c0,0.6,0.5,1.1,1.1,1.1h4.3c0.6,0,1.1-0.5,1.1-1.1v-8.2c0-1.5,1.2-2.7,2.7-2.7s2.7,1.2,2.7,2.7v2.7v5.4
	c0,0.6,0.5,1.1,1.1,1.1H38c0.6,0,1.1-0.5,1.1-1.1v-9.2c0-4.5-3.7-8.2-8.2-8.2c-1.4,0-2.7,0.5-3.8,1.1c0-0.6-0.5-1.1-1.1-1.1H21.7z
	 M14.1,20.7h2.2v14.1h-2.2V20.7z M22.8,20.7H25v0.9c0,0.6,0.5,1.1,1.1,1.1c0.3,0,0.6-0.1,0.8-0.3c1.1-1,2.5-1.7,4.1-1.7
	c3.3,0,6,2.7,6,6v8.2h-2.2v-4.3v-2.7c0-2.7-2.2-4.9-4.9-4.9S25,25,25,27.7v7.1h-2.2V20.7z"/>
</svg>
