<?xml version="1.0" encoding="utf-8"?>
<!-- Generator: Adobe Illustrator 25.2.3, SVG Export Plug-In . SVG Version: 6.00 Build 0)  -->
<svg version="1.1" id="Capa_1" xmlns="http://www.w3.org/2000/svg" xmlns:xlink="http://www.w3.org/1999/xlink" x="0px" y="0px"
	 viewBox="0 0 240 240" style="enable-background:new 0 0 240 240;" xml:space="preserve">
<style type="text/css">
	.st0{fill:#228BE6;}
</style>
<path class="st0" d="M120,0C53.7,0,0,53.7,0,120c0,22.5,6.3,43.5,17.1,61.5L1.1,240l59.7-15.7C78.3,234.3,98.5,240,120,240
	c66.3,0,120-53.7,120-120S186.3,0,120,0z M78.9,64c1.9,0,4,0,5.7,0.1c2.1,0.1,4.5,0.2,6.7,5.1c2.6,5.9,8.4,20.6,9.2,22.1
	s1.3,3.2,0.2,5.2c-1,2-1.5,3.2-2.9,5c-1.5,1.7-3.1,3.9-4.5,5.2c-1.5,1.5-3,3.1-1.3,6.1s7.7,12.7,16.5,20.6
	c11.3,10.1,20.9,13.3,23.9,14.7c3,1.5,4.7,1.3,6.4-0.7c1.8-1.9,7.4-8.6,9.4-11.6c1.9-3,3.9-2.5,6.6-1.5c2.7,1,17.4,8.2,20.3,9.7
	s4.9,2.2,5.7,3.4c0.8,1.2,0.8,7.2-1.7,14.1c-2.5,6.9-14.6,13.6-20,14.1c-5.5,0.5-10.6,2.5-35.7-7.4c-30.2-11.9-49.3-42.9-50.8-44.9
	c-1.5-1.9-12.1-16.1-12.1-30.7c0-14.7,7.7-21.8,10.4-24.8C73.7,64.8,76.9,64,78.9,64z"/>
</svg>
